<svg id="Layer_1" data-name="Layer 1" xmlns="http://www.w3.org/2000/svg" xmlns:xlink="http://www.w3.org/1999/xlink" viewBox="0 0 565.54 652.67"><defs><style>.cls-1{fill:none;}.cls-2{clip-path:url(#clip-path);}.cls-3{fill:url(#linear-gradient);}</style><clipPath id="clip-path" transform="translate(-4.69 -4.69)"><rect class="cls-1" width="572.65" height="661.83"/></clipPath><linearGradient id="linear-gradient" x1="4.69" y1="331.03" x2="570.23" y2="331.03" gradientUnits="userSpaceOnUse"><stop offset="0" stop-color="#ae4ec8"/><stop offset="1" stop-color="#e64791"/></linearGradient></defs><title>needle-logo</title><g class="cls-2"><path class="cls-3" d="M288.6,95c-96.66,0-95.69.81-187.75,0C9.39,95.82,9.39,4.69,9.39,4.69H570.23s0,91.13-91.46,90.32c-92.06.81-91.09,0-187.75,0Zm-1.19,94.92c-113.67-1.11-134.76-2.17-183.17-2.17C2.31,187.75,4.7,282.86,4.7,282.86v374.5s94.15,0,93.88-93.47c-.51-86.5,1-97.55-.67-189s94.56-92.25,94.56-92.25-2.09.15,94,.23c96.88-.09,94.79-.23,94.79-.23s96.26.79,94.56,92.25-.16,102.51-.67,189c-.28,93.47,93.88,93.47,93.88,93.47V282.86s2.39-95.11-99.54-95.11c-48.41,0-69.5,1.06-183.17,2.17Z" transform="translate(-4.69 -4.69)"/></g></svg>